<svg id="visual" viewBox="0 0 900 600" width="900" height="600" xmlns="http://www.w3.org/2000/svg" xmlns:xlink="http://www.w3.org/1999/xlink" version="1.1"><rect x="0" y="0" width="900" height="600" fill="#155932"></rect><defs><linearGradient id="grad1_0" x1="33.3%" y1="0%" x2="100%" y2="100%"><stop offset="20%" stop-color="#155932" stop-opacity="1"></stop><stop offset="80%" stop-color="#155932" stop-opacity="1"></stop></linearGradient></defs><defs><linearGradient id="grad2_0" x1="0%" y1="0%" x2="66.7%" y2="100%"><stop offset="20%" stop-color="#155932" stop-opacity="1"></stop><stop offset="80%" stop-color="#155932" stop-opacity="1"></stop></linearGradient></defs><g transform="translate(900, 0)"><path d="M0 270.4C-54.1 267.3 -108.2 264.1 -135.2 234.2C-162.2 204.2 -162.1 147.5 -180.1 104C-198.2 60.5 -234.3 30.3 -270.4 0L0 0Z" fill="#DCF2DE"></path></g><g transform="translate(0, 600)"><path d="M0 -270.4C20.4 -217.2 40.8 -164 85.5 -148.1C130.2 -132.2 199.3 -153.7 234.2 -135.2C269.1 -116.7 269.7 -58.4 270.4 0L0 0Z" fill="#DCF2DE"></path></g></svg>