<svg id="visual" viewBox="0 0 900 600" xmlns="http://www.w3.org/2000/svg" xmlns:xlink="http://www.w3.org/1999/xlink" version="1.1"><path d="M0 97L180 73L360 91L540 79L720 43L900 67L900 0L720 0L540 0L360 0L180 0L0 0Z" fill="#084522"></path><path d="M0 295L180 241L360 313L540 241L720 253L900 223L900 65L720 41L540 77L360 89L180 71L0 95Z" fill="#11512c"></path><path d="M0 481L180 403L360 415L540 421L720 367L900 391L900 221L720 251L540 239L360 311L180 239L0 293Z" fill="#155932"></path><path d="M0 553L180 553L360 511L540 505L720 481L900 499L900 389L720 365L540 419L360 413L180 401L0 479Z" fill="#11512c"></path><path d="M0 601L180 601L360 601L540 601L720 601L900 601L900 497L720 479L540 503L360 509L180 551L0 551Z" fill="#084522"></path></svg>